<?xml version="1.0" encoding="utf-8"?>
<!-- Generator: Adobe Illustrator 23.0.1, SVG Export Plug-In . SVG Version: 6.00 Build 0)  -->
<svg version="1.1" id="Layer_1" xmlns="http://www.w3.org/2000/svg" xmlns:xlink="http://www.w3.org/1999/xlink" x="0px" y="0px"
	 viewBox="0 0 570 370" style="enable-background:new 0 0 570 370;" xml:space="preserve">
<style type="text/css">
	.st0{fill:none;}
	.st1{fill:#949494;}
	.st2{fill:#F3F3F3;}
	.st3{fill:#FFFFFF;}
	.st4{font-family:'Lato-Black';}
	.st5{font-size:16.9546px;}
	.st6{fill:#9ABD48;}
	.st7{fill:#DFDFDF;}
	.st8{fill:none;stroke:#9ABD48;stroke-width:2.1644;stroke-miterlimit:10;}
	.st9{fill:none;stroke:#9ABD48;stroke-width:3.9681;stroke-miterlimit:10;stroke-dasharray:7.9362;}
	.st10{fill:url(#SVGID_1_);}
	.st11{fill:url(#SVGID_2_);}
	.st12{fill:url(#SVGID_3_);}
	.st13{fill:none;stroke:#000000;stroke-width:0.9018;stroke-linecap:round;stroke-linejoin:round;}
	.st14{fill:#333333;}
</style>
<pattern  width="12" height="12" patternUnits="userSpaceOnUse" id="New_Pattern" viewBox="2 -14 12 12" style="overflow:visible;">
	<g>
		<rect x="2" y="-14" class="st0" width="12" height="12"/>
		<rect x="2" y="-14" class="st0" width="12" height="12"/>
		<circle class="st1" cx="14" cy="-11" r="2"/>
		<circle class="st1" cx="8" cy="-14" r="2"/>
		<circle class="st1" cx="2" cy="-11" r="2"/>
		<circle class="st1" cx="14" cy="-5" r="2"/>
		<circle class="st1" cx="8" cy="-8" r="2"/>
		<circle class="st1" cx="2" cy="-5" r="2"/>
		<circle class="st1" cx="8" cy="-2" r="2"/>
	</g>
</pattern>
<g>
	<path class="st2" d="M450.81,309.61H360.5c-2.38,0-4.33-1.95-4.33-4.33V204.25c0-2.38,1.95-4.33,4.33-4.33h90.31
		c2.38,0,4.33,1.95,4.33,4.33v101.03C455.14,307.66,453.19,309.61,450.81,309.61z"/>
	<path d="M453.27,310.97h-95.23c-1.03,0-1.87-0.84-1.87-1.87v-18.63h98.97v18.63C455.14,310.13,454.3,310.97,453.27,310.97z"/>
	<rect x="373.48" y="294.11" class="st0" width="64.34" height="22.97"/>
	<text transform="matrix(1 0 0 1 379.0176 306.8135)" class="st3 st4 st5">START</text>
	<path class="st6" d="M408.41,231.34l18.58,10.31c0.49,0.27,0.5,0.96,0.02,1.25l-18.22,10.94l-18.22,10.94
		c-0.48,0.29-1.08-0.05-1.09-0.61l-0.36-21.24l-0.36-21.24c-0.01-0.56,0.59-0.91,1.07-0.64L408.41,231.34z"/>
</g>
<path class="st2" d="M225.44,145.49L225.44,145.49c-1.54-1.11-2.6-2.16-2.97-3.02c-0.87-2.02,1.19-9.98,5.35-18.84H110.87v38.6
	h112.52C224.03,154.95,224.84,149.19,225.44,145.49z"/>
<rect x="98.06" y="249.94" class="st7" width="49.42" height="67.82"/>
<rect x="98.06" y="249.94" class="st2" width="49.42" height="4.69"/>
<rect x="110.87" y="29.12" class="st2" width="120.49" height="38.6"/>
<circle class="st7" cx="130.53" cy="48.06" r="12.63"/>
<rect x="151.81" y="36.16" class="st7" width="70.7" height="4.33"/>
<rect x="151.81" y="46.26" class="st7" width="23.81" height="4.33"/>
<rect x="405.65" y="33.96" class="st2" width="76.35" height="46.82"/>
<rect x="419.79" y="41.02" class="st7" width="48.27" height="4.17"/>
<rect x="419.79" y="51.32" class="st7" width="48.27" height="4.17"/>
<rect x="419.79" y="61.34" class="st7" width="23.81" height="4.33"/>
<polyline class="st8" points="138.96,42.98 128.54,53.4 124.23,49.09 "/>
<rect x="110.87" y="76.38" class="st2" width="120.49" height="38.6"/>
<circle class="st7" cx="130.53" cy="95.32" r="12.63"/>
<rect x="151.81" y="83.41" class="st7" width="70.7" height="4.33"/>
<rect x="151.81" y="93.51" class="st7" width="23.81" height="4.33"/>
<polyline class="st8" points="138.96,90.24 128.54,100.66 124.23,96.34 "/>
<circle class="st7" cx="130.53" cy="142.57" r="12.63"/>
<rect x="151.81" y="130.67" class="st7" width="70.7" height="4.33"/>
<rect x="151.81" y="140.77" class="st7" width="23.81" height="4.33"/>
<polyline class="st8" points="138.96,137.49 128.54,147.91 124.23,143.6 "/>
<rect x="88.32" y="261.12" class="st2" width="49.42" height="67.82"/>
<rect x="88.32" y="261.12" class="st7" width="49.42" height="4.69"/>
<rect x="93.73" y="274.1" class="st7" width="38.96" height="3.25"/>
<rect x="93.73" y="280.6" class="st7" width="38.96" height="3.25"/>
<rect x="93.73" y="287.09" class="st7" width="38.96" height="3.25"/>
<path class="st9" d="M333.98,105.78c0-3.61,6.49-9.38,17.68-9.38c13.71,0,32.47,29.22,53.39,29.22c14.43,0,34.27-11.9,34.27-33.55"
	/>
<path class="st9" d="M217.94,181.74c-19.11-10.16-38.94,1.77-45.71,14.51c-9.82,18.47,7.18,48.75,0.74,60.86
	c-5.25,9.87-13.39,12.9-16.58,11.21"/>
<g id="Shadows">
	<pattern  id="SVGID_1_" xlink:href="#New_Pattern" patternTransform="matrix(1 0 0 -1 -12 -15216)">
	</pattern>
	<polygon class="st10" points="250.64,96.76 246.64,98.64 238.67,106.18 235.54,110.24 231.07,117.33 227.82,123.63 225.55,128.9 
		223.75,133.98 222.51,138.89 222.28,142.28 223.67,144.03 225.44,145.49 224.95,148.69 223.09,165.98 222.32,184.16 222.62,199.77 
		223.8,215.07 226.23,231.88 231.11,252.49 233.78,261.41 235.15,260.77 233.97,242.51 232.57,240.37 231.28,235.01 230.13,224.34 
		229.39,210.19 229.09,198.24 229.39,184.35 229.88,173.43 230.56,164.78 231.94,152.94 232.87,145.82 235.43,133.5 238.24,122.4 
		240.37,116.67 243.05,109.6 246.35,103.32 	"/>
</g>
<g id="Vector">
	<pattern  id="SVGID_2_" xlink:href="#New_Pattern" patternTransform="matrix(1 0 0 -1 -12 -15216)">
	</pattern>
	<path class="st11" d="M328.39,176.66c-0.85-1.08-2.02-2.55-3.36-4.28l-1.28-1.63l-0.85-1.17c-1.37-1.83-2.82-3.8-4.22-5.77l0,0l0,0
		c-1.32-1.88-2.6-3.77-3.72-5.55v-0.02l0,0c-1.09-1.69-2.07-3.45-2.93-5.26l0.04-0.02l-1.64-0.21l-2.4-1.94l-3.54-4.59l-1.35-1.89
		l-0.61-0.25c0,0.97,1.04,9.23,1.19,20.92C310.89,168.69,319.2,172.67,328.39,176.66z"/>
	<pattern  id="SVGID_3_" xlink:href="#New_Pattern" patternTransform="matrix(1 0 0 -1 -12 -15216)">
	</pattern>
	<path class="st12" d="M328.89,203.69c-7.94-3.99-17.2-9.74-26.13-15.73c-2.53,24.31-10.71,52.16-33.75,65.11
		c26.62,3.94,56.51-10.75,56.51-10.75l0.89-1.54l1.31-6.06l1.18-10.61v-9.83V203.69z"/>
	<path d="M280.41,367.85h-34.99c0,0-11.9-123.01-11.9-125.54c2.16,2.16,1.8,2.89,10.82,5.41c5.41,5.77,43.65,101.73,43.65,101.73
		L280.41,367.85z"/>
	<path d="M325.51,242.32v125.54h-45.09L244.3,247.64C256.97,249.89,304.94,251.7,325.51,242.32z"/>
	<path class="st13" d="M225.44,145.49c-2.53,15.46-8.55,67.1,8.43,115.58c0.45,0.11,0.92,0,1.27-0.3"/>
	<path class="st13" d="M232.44,149.55c-5.15-2.53-9.15-5.19-9.96-7.07c-1.95-4.52,10.73-38.6,28.67-46.41"/>
	<path class="st13" d="M287.63,83.13c4.25,1.61,8.1,4.33,11.58,7.88"/>
	<path class="st13" d="M328.75,203.38c0.57,21.07-0.93,36.95-3.25,38.94c-7.58,6.49-85.13,12.63-91.99,0
		c-6.46-11.9-12.93-144.41,35.35-159.49"/>
	<path class="st13" d="M294.95,94.48c0.82-0.97,1.76-1.84,2.78-2.59c14.07-10.46,46.9,31.38,46.53,38.96
		c-0.36,7.58-27.78,23.45-33.55,22c-1.49-0.36-4.39-3.61-7.53-8.46"/>
	<path class="st13" d="M268.87,82.82v-7.06"/>
	<path class="st13" d="M287.63,64.91v23.37c0,2.59-5.74,3.86-10.87,3.63"/>
	<path class="st13" d="M268.87,75.76c-8.08-3.58-14.07-16.57-14.07-32.03c-0.01-3.57,0.32-7.13,0.99-10.64"/>
	<path class="st13" d="M273.38,76.74c-1.56-0.01-3.09-0.34-4.51-0.98"/>
	<path class="st13" d="M291.17,53.26c-0.64,3.96-1.8,7.81-3.46,11.46"/>
	<path class="st13" d="M288.45,63.03h3.15c4.69,0,6.85-1.8,14.07-1.8c12.63,0,30.3,15.51,51.95,15.51
		c23.45,0,33.19-17.68,33.19-37.52c0-26.33-24.89-33.19-36.8-33.19c-14.07,0-25.61,10.1-40.76,10.1
		c-10.82,0-21.28-12.99-36.43-12.99c-19.48,0-25.61,10.46-25.61,17.68c0,5.77,3.51,12.27,4.6,12.27c0.32-1.91,2.26-8.3,2.98-9.02
		c0.22,0.76,1.75,2.9,4.15,5.52"/>
	<path class="st13" d="M287.99,44.37c2.24-1.49,5.26-0.89,6.76,1.34c1.49,2.24,0.89,5.26-1.34,6.76c-0.66,0.44-1.42,0.71-2.2,0.8"/>
	<path class="st14" d="M258.77,158.76c-6.47-3.73-9.53-10.54-6.85-15.2c1.75-3.03,5.51-4.4,9.7-3.97l-5.58-36.26l-38.1,4.6
		l8.3,56.91l37.05-4.23C261.7,160.21,260.18,159.58,258.77,158.76z"/>
	<path class="st13" d="M312.01,152.95c3.06,6.73,12.71,19.12,16.38,23.71c-29.94-12.99-50.5-25.97-52.31-27.78
		c-0.26-0.21-0.61-0.27-0.92-0.16c-1.51-2.88-3.82-5.25-6.66-6.83c-6.47-3.74-13.9-2.99-16.59,1.67c-2.7,4.66,0.36,11.46,6.85,15.2
		c2.31,1.36,4.9,2.17,7.58,2.35c0.11,0.15,0.23,0.28,0.36,0.4c3.97,3.61,60.96,47.62,78.28,47.62c4.33,0,11.18-6.85,11.18-20.56
		c0-4.77-3.22-31.1-14.82-52.55"/>
</g>
<polygon class="st2" points="460.12,71.42 473.68,63.67 473.61,79.29 473.54,94.91 460.04,87.04 446.55,79.17 "/>
</svg>
