<?xml version="1.0" encoding="utf-8"?>
<!-- Generator: Adobe Illustrator 23.0.1, SVG Export Plug-In . SVG Version: 6.00 Build 0)  -->
<svg version="1.1" id="Layer_1" xmlns="http://www.w3.org/2000/svg" xmlns:xlink="http://www.w3.org/1999/xlink" x="0px" y="0px"
	 viewBox="0 0 76 98" style="enable-background:new 0 0 76 98;" xml:space="preserve">
<style type="text/css">
	.st0{fill:#DFF0F4;}
	.st1{fill:#695446;}
	.st2{fill:#F2D8C4;}
	.st3{fill:#E6CDBE;}
	.st4{fill:none;stroke:#D29E8C;stroke-width:1.5715;stroke-linecap:round;stroke-miterlimit:10;}
	.st5{fill:none;stroke:#695446;stroke-width:1.5715;stroke-linecap:round;stroke-miterlimit:10;}
	.st6{fill:#6B6C6C;}
</style>
<g>
	<g>
		<path class="st0" d="M72.5,97.7h-69v-9.6c0-9.4,7.6-17,17-17h35c9.4,0,17,7.6,17,17L72.5,97.7L72.5,97.7z"/>
		<path class="st1" d="M37.9,0.2L37.9,0.2c15.3,0,27.7,12.1,27.7,26.9v27.3c0,15.8-7.3,15.8-16.2,15.8H26.4
			c-8.9,0-16.2-1.4-16.2-15.8V27.1C10.2,12.3,22.6,0.2,37.9,0.2z"/>
		<path class="st2" d="M37.9,76.5L37.9,76.5c-2.8,0-5.1-2.4-5.1-5.3v-7.9H43v7.9C43,74.2,40.8,76.5,37.9,76.5z"/>
		<path class="st3" d="M37.9,68.2c1.5,0,3.3-0.3,5.1-1V65H32.8v1.9C34.9,67.7,36.7,68.2,37.9,68.2z"/>
		<path class="st2" d="M37.8,67.3L37.8,67.3c-5.1,0-21-8.1-21-20.1V25.1c0-7,5.5-12.7,12.3-12.7h17.4c6.8,0,12.3,5.7,12.3,12.7v22.1
			C58.8,59.2,45,67.3,37.8,67.3z"/>
		<g>
			<path class="st4" d="M35.8,50.3c0.3,1,1.3,1.1,2.1,1.1s1.7-0.1,2.1-1.1"/>
		</g>
		<g>
			<path class="st4" d="M33.5,57.6c0.5,1.1,2,2.2,4.3,2.2c2.5,0,3.9-1.1,4.3-2.2"/>
		</g>
		<path class="st5" d="M44.2,35.7c2-0.2,6.5,0.3,8,0.8"/>
		<path class="st5" d="M30.4,35.7c-2-0.2-6.6,0.3-8.1,0.8"/>
		<path class="st2" d="M58.9,38.1c2.1,0,3.8,1.5,3.8,3.4s-1.7,3.4-3.8,3.4V38.1z"/>
		<path class="st2" d="M16.9,38.1c-2.1,0-3.8,1.5-3.8,3.4s1.7,3.4,3.8,3.4V38.1z"/>
		<path class="st3" d="M46.6,12.6H29.2c-6.8,0-12.3,5.6-12.3,12.7l0,1.9c0,1.4,1.1,2.6,2.5,2.6h6.7l1.5-3.2v3.2h28.7
			c1.4,0,2.5-1.2,2.5-2.6v-1.9C58.9,18.4,53.4,12.6,46.6,12.6z"/>
		<path class="st1" d="M46.6,11.6H29.2c-6.8,0-13.1,5.7-13.1,12.7l0.8,1.9c0,1.4,1.1,2.6,2.5,2.6h6.7l1.7-3.2v3.2h28.5
			c1.4,0,2.5-1.2,2.5-2.6v-1.9C58.9,17.3,53.4,11.6,46.6,11.6z"/>
		<path class="st3" d="M58.9,38.1v6.8c0.1,0,0.3,0,0.4,0v-6.7C59.1,38.2,59,38.1,58.9,38.1z"/>
		<path class="st3" d="M16.9,38.1v6.8c-0.1,0-0.3,0-0.4,0v-6.7C16.7,38.2,16.8,38.1,16.9,38.1z"/>
		<path class="st6" d="M46.9,42.1c0,1-0.8,1.7-1.7,1.7s-1.7-0.8-1.7-1.7c0-1,0.8-1.7,1.7-1.7S46.9,41.1,46.9,42.1z"/>
		<ellipse class="st6" cx="29.8" cy="42.1" rx="1.7" ry="1.7"/>
	</g>
</g>
</svg>
