<?xml version="1.0" encoding="utf-8"?>
<!-- Generator: Adobe Illustrator 23.0.1, SVG Export Plug-In . SVG Version: 6.00 Build 0)  -->
<svg version="1.1" id="Layer_1" xmlns="http://www.w3.org/2000/svg" xmlns:xlink="http://www.w3.org/1999/xlink" x="0px" y="0px"
	 viewBox="0 0 76 98" style="enable-background:new 0 0 76 98;" xml:space="preserve">
<style type="text/css">
	.st0{fill:#EBC19C;}
	.st1{fill:#737374;}
	.st2{fill:#93745D;}
	.st3{fill:#D09F76;}
	.st4{fill:#F0EFEF;}
	.st5{fill:#CB8C85;}
	.st6{fill:#FFFFFF;}
</style>
<g>
	<g>
		<path class="st0" d="M46.85,69.72h-0.14V55.43H27.6v14.29h-0.14C12.62,69.72,0.6,81.75,0.6,96.58v1.4h73.11v-1.4
			C73.71,81.75,61.68,69.72,46.85,69.72z"/>
		<path class="st0" d="M37.15,67.22L37.15,67.22c-12.24,0-22.17-9.92-22.17-22.17V11.91h44.33v33.15
			C59.32,57.3,49.4,67.22,37.15,67.22z"/>
		<g>
			<g>
				<circle class="st1" cx="46.91" cy="39.54" r="1.54"/>
			</g>
		</g>
		<path class="st2" d="M43.1,32.29h1.66c0.28,0,0.6,0.01,0.94,0.04c1.79,0.12,3.54,0.59,5.12,1.44c0.52,0.28,0.91,0.55,0.91,0.73
			c0,0.15-8.63-0.48-8.63-0.48c-0.18,0-0.32-0.14-0.32-0.32v-1.09C42.78,32.44,42.92,32.29,43.1,32.29z"/>
		<g>
			<g>
				<circle class="st1" cx="27.75" cy="39.54" r="1.54"/>
			</g>
		</g>
		<path class="st2" d="M31.56,32.29h-1.66c-0.11,0-0.22,0-0.34,0.01c-2.07,0.06-4.12,0.57-6,1.44c-0.62,0.29-1.11,0.57-1.11,0.76
			c0,0.15,9.11-0.48,9.11-0.48c0.18,0,0.32-0.14,0.32-0.32v-1.09C31.87,32.44,31.73,32.29,31.56,32.29z"/>
		<path class="st3" d="M39.35,47.64h-0.15V40.1c0-1.06-0.87-1.94-1.94-1.94h-0.21c-1.06,0-1.94,0.87-1.94,1.94v7.54h-0.15
			c-0.85,0-1.55,0.7-1.55,1.55c0,0.85,0.7,1.55,1.55,1.55h0.39c0.33,0.61,0.96,1.03,1.7,1.03h0.21c0.74,0,1.37-0.42,1.7-1.03h0.39
			c0.85,0,1.55-0.7,1.55-1.55C40.89,48.34,40.2,47.64,39.35,47.64z"/>
		<g>
			<path class="st4" d="M48.78,69.72L48.78,69.72C48.59,75.98,43.46,81,37.15,81c-6.31,0-11.43-5.02-11.62-11.29h0
				C11.76,69.72,0.6,80.88,0.6,94.65v3.33h73.11v-3.33C73.71,80.88,62.55,69.72,48.78,69.72z"/>
		</g>
		<path class="st5" d="M32.99,56.95c0,2.3,1.86,4.17,4.17,4.17c2.3,0,4.17-1.86,4.17-4.17H32.99z"/>
		<g>
			<path class="st6" d="M41.32,56.95h-8.33c0,0.54,0.11,1.06,0.29,1.53h7.74C41.21,58.01,41.32,57.49,41.32,56.95z"/>
		</g>
		<path class="st2" d="M56.77,10.23c-0.47-0.09-0.81-0.43-1-0.89C53.63,4.02,43.46,0.49,35.38,0.5c-4.98,0-9.21,0.76-9.89,1.34
			c-0.52,0.45,1.7,0.9,1.94,1c2.51,1.08-8.58,0.51-10.81,3.62c-0.44,0.61,1.8,0.84-0.05,2.07c-1.35,0.9-3.82,3.24-4.85,4.98
			c-0.97,1.65-2.67,4.21-3.07,6.16c-0.11,0.53-0.25,1.27-0.08,1.41c0.41,0.32,1.52-0.63,1.44-0.39c-0.59,1.58-2.08,2.39-2.82,8.25
			c-0.36,2.86,0.24,4.31,0.52,4.28c0.35-0.04,1.66-1.77,1.66-1.77s0.97,3.64,2.57,7.16c0.75,1.64,3.05,5.02,3.05,5.02
			c0-0.54,0.23-6.31,0.41-8.07c0.44-4.32,0.72-9.13,1.72-10.38c0.99-1.26,6.38,3.8,6.47,2.63c0.03-0.42,0.28-4.1,0.28-4.1
			s2.1,2.86,2.5,2.13c0.51-0.92,0.77-3.19,0.77-3.19s0.58,1.7,2.27,2.02c1.35,0.26,2.27-2.75,8.72-0.63
			c10.4,3.42,11.7-0.73,14.7-0.29c2.16,0.31,5.65,3.32,6.1,8.49c0.35,4.03,0.4,11,0.4,11s3.44-4.89,3.6-8.86
			c0.05-1.16,1.95,2.15,1.86,0.19c-0.22-4.43-2.72-7.58-1.92-7.09c2.47,1.51,2.72,2.17,2.74,1.24c0.01-0.45-0.11-2.95-0.4-4.08
			c-0.64-2.47-0.68-4.51-4.41-8.61c-0.32-0.35-0.31-0.38-0.65-0.66c-0.36-0.3,2.02,0.16,1.81-0.23
			C61.14,13.57,59.5,10.76,56.77,10.23z"/>
	</g>
</g>
</svg>
