<?xml version="1.0" encoding="utf-8"?>
<!-- Generator: Adobe Illustrator 23.0.1, SVG Export Plug-In . SVG Version: 6.00 Build 0)  -->
<svg version="1.1" id="Layer_1" xmlns="http://www.w3.org/2000/svg" xmlns:xlink="http://www.w3.org/1999/xlink" x="0px" y="0px"
	 viewBox="0 0 76 98" style="enable-background:new 0 0 76 98;" xml:space="preserve">
<style type="text/css">
	.st0{fill:#57545E;}
	.st1{fill:#EBC19C;}
	.st2{fill:#737374;}
	.st3{fill:#93745D;}
	.st4{fill:#D09F76;}
	.st5{fill:#2E368F;}
	.st6{fill:#CB8C85;}
	.st7{fill:#FFFFFF;}
	.st8{fill:#766C82;}
</style>
<g>
	<g>
		<polygon class="st0" points="49.62,66.28 25.48,66.28 37.55,76.46 		"/>
		<path class="st1" d="M47.52,68.67h-0.14V53.92H27.72v14.74h-0.14c-15.26,0-27.63,12.41-27.63,27.72v1.05h75.2v-1.05
			C75.15,81.08,62.78,68.67,47.52,68.67z"/>
		<path class="st1" d="M37.55,66.09L37.55,66.09c-12.59,0-22.8-10.21-22.8-22.8V13.04h45.59v30.25
			C60.35,55.89,50.14,66.09,37.55,66.09z"/>
		<g>
			<g>
				<ellipse class="st2" cx="47.58" cy="38.74" rx="1.58" ry="1.59"/>
			</g>
		</g>
		<path class="st3" d="M43.67,31.26h1.71c0.29,0,0.62,0.01,0.96,0.04c1.84,0.12,3.64,0.61,5.26,1.49c0.53,0.29,0.94,0.57,0.94,0.75
			c0,0.16-8.88-0.49-8.88-0.49c-0.18,0-0.33-0.15-0.33-0.33v-1.13C43.34,31.41,43.49,31.26,43.67,31.26z"/>
		<g>
			<g>
				<ellipse class="st2" cx="27.88" cy="38.74" rx="1.58" ry="1.59"/>
			</g>
		</g>
		<path class="st3" d="M31.79,31.26h-1.71c-0.11,0-0.23,0-0.35,0.01c-2.13,0.06-4.23,0.59-6.17,1.49c-0.64,0.3-1.14,0.59-1.14,0.78
			c0,0.16,9.37-0.49,9.37-0.49c0.18,0,0.33-0.15,0.33-0.33v-1.13C32.12,31.41,31.98,31.26,31.79,31.26z"/>
		<path class="st4" d="M39.8,47.1h-0.16v-7.78c0-1.1-0.9-2-1.99-2h-0.21c-1.1,0-1.99,0.9-1.99,2v7.78H35.3
			c-0.87,0-1.59,0.72-1.59,1.6s0.72,1.6,1.59,1.6h0.4c0.34,0.63,0.99,1.06,1.75,1.06h0.21c0.76,0,1.41-0.43,1.75-1.06h0.4
			c0.87,0,1.59-0.72,1.59-1.6S40.68,47.1,39.8,47.1z"/>
		<g>
			<path class="st5" d="M49.51,68.67L49.51,68.67c-0.2,6.46-5.47,7.8-11.96,7.8c-6.49,0-11.76-1.33-11.96-7.8h0
				c-14.16,0-25.64,11.52-25.64,25.72v3.44h75.2v-3.44C75.15,80.18,63.67,68.67,49.51,68.67z"/>
		</g>
		<path class="st6" d="M33.27,55.5c0,2.37,1.92,4.3,4.28,4.3s4.28-1.92,4.28-4.3H33.27z"/>
		<g>
			<path class="st7" d="M41.84,55.5h-8.57c0,0.56,0.11,1.09,0.3,1.58h7.96C41.73,56.59,41.84,56.06,41.84,55.5z"/>
		</g>
		<path class="st3" d="M45.63,2.23c-0.87,0.18-3.1,0.68-3.1,0.68s-1.68-0.43-2.37-0.68c-0.88-0.32-4.02-2.14-5.59-1.86
			c-1.45,0.26,0.79,0.88-0.16,0.83c-0.56-0.03-2.64-0.44-3.19-0.44c-0.68-0.01,0.16,0.39-0.48,0.42c-2.31,0.1-5.96,0.4-7.21,0.94
			C18.99,4.1,15.91,7.9,15.66,8.2c-0.31,0.36,0.97,0.02,0.68,0.4c-0.55,0.74-3.17,3.82-3.82,5.3c-0.25,0.57,1.28-0.54,1.09,0.08
			c-0.18,0.58-1.22,2.84-1.34,3.45c-0.1,0.52,0.72-0.61,0.66-0.06c-0.06,0.62-0.49,4.09-0.49,4.09l0.4-0.58l-0.57,11.26l0.57-0.54
			v10.75c0,1.32,1.06,2.38,2.38,2.38l0-4.02v-9.95c0,0-1.73,0.54-0.76,0.24c4.28-1.34,7.31-4.36,8.54-4.67
			c0.63-0.16-2.08,2.71-1.42,2.58c2.54-0.48,6.33-4.04,7.81-4.64c0.64-0.26-1.22,2.53-0.59,2.25c2.47-1.12,3.74-2.53,6.19-5.07
			c0.31-0.32-0.59,2.11-0.17,1.96c1.58-0.57,6.18-7.37,7.06-9.65l0,0c0.54,0.73,1.57,5.29,4.03,7.62c0.43,0.41-0.72-3.47-0.34-3.05
			c1.11,1.26,5.43,7.44,7.77,9.25c0.95,0.74-0.32-2.48,0.47-1.76c1.18,1.08,5.19,3.27,7.3,3.9l-0.88-0.33l0.01,15.33h0
			c0.87,0,1.62-0.47,2.04-1.16c0.21-0.36,0.34-0.78,0.34-1.22v-0.86v-9.87l0.63,0.99l-0.63-13.03v-0.29v0
			c0-0.52-0.02-1.05-0.07-1.58c-0.05-0.53,0.34,0.03,0.24-0.49c-0.22-1.24-1.02-3.55-1.48-4.73c-0.26-0.66,0.58,0.17,0.25-0.46
			c-0.28-0.55-2.54-4.54-4.97-6.62c-0.28-0.25,0.88,0.2,0.59-0.03c-0.18-0.15-3.62-2.18-4.48-2.56c-0.38-0.17,0.92-0.29,0.04-0.53
			C52.13,2.11,48.75,1.6,45.63,2.23z"/>
		<path class="st1" d="M61.61,45.19h-1.43V34.63h1.43c1.27,0,2.3,1.03,2.3,2.3v5.95C63.91,44.16,62.88,45.19,61.61,45.19z"/>
		<path class="st1" d="M13.79,45.19h1.43V34.63h-1.43c-1.27,0-2.3,1.03-2.3,2.3v5.95C11.49,44.16,12.52,45.19,13.79,45.19z"/>
		<g>
			<g>
				<path class="st8" d="M55.5,69.12L43.89,80.46c-0.48,0.56-1.33,0.61-1.87,0.11l-4.47-4.11l12.07-10.19L55.5,69.12z"/>
			</g>
			<g>
				<path class="st8" d="M19.6,69.12l11.61,11.34c0.48,0.56,1.33,0.61,1.87,0.11l4.47-4.11L25.48,66.28L19.6,69.12z"/>
			</g>
		</g>
		<g>
			<ellipse class="st8" cx="37.55" cy="87.76" rx="0.94" ry="0.94"/>
			<ellipse class="st8" cx="37.55" cy="79.98" rx="0.94" ry="0.94"/>
			<ellipse class="st8" cx="37.55" cy="95.55" rx="0.94" ry="0.94"/>
		</g>
	</g>
</g>
</svg>
