<?xml version="1.0" encoding="utf-8"?>
<!-- Generator: Adobe Illustrator 23.0.1, SVG Export Plug-In . SVG Version: 6.00 Build 0)  -->
<svg version="1.1" id="Layer_1" xmlns="http://www.w3.org/2000/svg" xmlns:xlink="http://www.w3.org/1999/xlink" x="0px" y="0px"
	 viewBox="0 0 76 98" style="enable-background:new 0 0 76 98;" xml:space="preserve">
<style type="text/css">
	.st0{fill:#DFF0F4;}
	.st1{fill:#695446;}
	.st2{fill:#F2D8C4;}
	.st3{fill:#E6CDBE;}
	.st4{fill:none;stroke:#D29E8C;stroke-width:1.5715;stroke-linecap:round;stroke-miterlimit:10;}
	.st5{fill:none;stroke:#695446;stroke-width:1.5715;stroke-linecap:round;stroke-miterlimit:10;}
	.st6{fill:#6B6C6C;}
</style>
<g>
	<g>
		<path class="st0" d="M72.5,97.71h-69V88.1c0-9.38,7.6-16.98,16.98-16.98h35.05c9.38,0,16.98,7.6,16.98,16.98V97.71z"/>
		<path class="st1" d="M37.89,0.22L37.89,0.22c15.28,0,27.66,12.05,27.66,26.91v27.32c0,15.76-7.26,15.76-16.2,15.76H26.44
			c-8.95,0-16.2-1.4-16.2-15.76V27.13C10.23,12.27,22.62,0.22,37.89,0.22z"/>
		<path class="st2" d="M37.92,76.53L37.92,76.53c-2.82,0-5.11-2.37-5.11-5.3v-7.9h10.23v7.9C43.04,74.16,40.75,76.53,37.92,76.53z"
			/>
		<path class="st3" d="M37.92,68.21c1.48,0,3.25-0.35,5.11-1.01v-2.19H32.81v1.86C34.89,67.74,36.72,68.21,37.92,68.21z"/>
		<path class="st2" d="M37.83,67.27L37.83,67.27c-5.06,0-20.97-8.13-20.97-20.13V25.08c0-7.03,5.5-12.73,12.29-12.73h17.37
			c6.79,0,12.29,5.7,12.29,12.73v22.06C58.8,59.15,44.98,67.27,37.83,67.27z"/>
		<g>
			<path class="st4" d="M35.76,50.28c0.33,1.04,1.31,1.11,2.07,1.11s1.74-0.07,2.07-1.11"/>
		</g>
		<g>
			<path class="st4" d="M33.51,57.63c0.51,1.1,1.95,2.2,4.33,2.2c2.45,0,3.92-1.1,4.33-2.2"/>
		</g>
		<path class="st5" d="M44.15,35.68c2.01-0.21,6.55,0.25,8.05,0.84"/>
		<path class="st5" d="M30.42,35.68c-2.01-0.21-6.55,0.25-8.05,0.84"/>
		<path class="st2" d="M58.86,38.14c2.09,0,3.79,1.52,3.79,3.4s-1.69,3.4-3.79,3.4V38.14z"/>
		<path class="st2" d="M16.92,38.14c-2.09,0-3.79,1.52-3.79,3.4s1.69,3.4,3.79,3.4V38.14z"/>
		<path class="st3" d="M46.57,12.65H29.21c-6.79,0-12.29,5.63-12.29,12.66l0.01,1.93c0,1.44,1.12,2.6,2.51,2.6h6.73l1.45-3.23v3.23
			h28.74c1.39,0,2.51-1.16,2.51-2.6v-1.87C58.86,18.35,53.36,12.65,46.57,12.65z"/>
		<path class="st1" d="M46.57,11.55H29.21c-6.79,0-13.06,5.7-13.06,12.73l0.77,1.87c0,1.44,1.12,2.6,2.51,2.6h6.73l1.68-3.23v3.23
			h28.51c1.39,0,2.51-1.16,2.51-2.6v-1.87C58.86,17.25,53.36,11.55,46.57,11.55z"/>
		<path class="st3" d="M58.86,38.14v6.8c0.13,0,0.26-0.02,0.39-0.03v-6.73C59.12,38.17,58.99,38.14,58.86,38.14z"/>
		<path class="st3" d="M16.92,38.14v6.8c-0.13,0-0.26-0.02-0.39-0.03v-6.73C16.66,38.17,16.79,38.14,16.92,38.14z"/>
		<path class="st6" d="M46.9,42.1c0,0.96-0.75,1.73-1.67,1.73c-0.92,0-1.67-0.78-1.67-1.73c0-0.96,0.75-1.73,1.67-1.73
			C46.15,40.37,46.9,41.14,46.9,42.1z"/>
		<ellipse class="st6" cx="29.79" cy="42.1" rx="1.67" ry="1.73"/>
	</g>
</g>
</svg>
