<?xml version="1.0" encoding="utf-8"?>
<!-- Generator: Adobe Illustrator 23.0.1, SVG Export Plug-In . SVG Version: 6.00 Build 0)  -->
<svg version="1.1" id="Layer_1" xmlns="http://www.w3.org/2000/svg" xmlns:xlink="http://www.w3.org/1999/xlink" x="0px" y="0px"
	 viewBox="0 0 76 98" style="enable-background:new 0 0 76 98;" xml:space="preserve">
<style type="text/css">
	.st0{fill:#EBC19C;}
	.st1{fill:#737374;}
	.st2{fill:#93745D;}
	.st3{fill:#F0EFEF;}
	.st4{fill:#CB8C85;}
	.st5{fill:#FFFFFF;}
	.st6{fill:none;stroke:#D29E8C;stroke-width:1.5715;stroke-linecap:round;stroke-miterlimit:10;}
</style>
<g>
	<g>
		<path class="st0" d="M46.8,69.7h-0.1V55.4H27.6v14.3h-0.1c-14.8,0-26.9,12-26.9,26.9V98h73.1v-1.4C73.7,81.8,61.7,69.7,46.8,69.7z
			"/>
		<path class="st0" d="M37.2,67.2L37.2,67.2C24.9,67.2,15,57.3,15,45.1V11.9h44.3v33.2C59.3,57.3,49.4,67.2,37.2,67.2z"/>
		<g>
			<g>
				<circle class="st1" cx="46.9" cy="39.5" r="1.5"/>
			</g>
		</g>
		<path class="st2" d="M43.1,32.3h1.7c0.3,0,0.6,0,0.9,0c1.8,0.1,3.5,0.6,5.1,1.4c0.5,0.3,0.9,0.5,0.9,0.7c0,0.2-8.6-0.5-8.6-0.5
			c-0.2,0-0.3-0.1-0.3-0.3v-1.1C42.8,32.4,42.9,32.3,43.1,32.3z"/>
		<g>
			<g>
				<circle class="st1" cx="27.8" cy="39.5" r="1.5"/>
			</g>
		</g>
		<path class="st2" d="M31.6,32.3h-1.7c-0.1,0-0.2,0-0.3,0c-2.1,0.1-4.1,0.6-6,1.4c-0.6,0.3-1.1,0.6-1.1,0.8c0,0.2,9.1-0.5,9.1-0.5
			c0.2,0,0.3-0.1,0.3-0.3v-1.1C31.9,32.4,31.7,32.3,31.6,32.3z"/>
		<g>
			<path class="st3" d="M48.8,69.7L48.8,69.7C48.6,76,43.5,81,37.2,81s-11.4-5-11.6-11.3l0,0c-13.8,0-24.9,11.2-24.9,24.9V98h73.1
				v-3.3C73.7,80.9,62.5,69.7,48.8,69.7z"/>
		</g>
		<path class="st4" d="M33,57c0,2.3,1.9,4.2,4.2,4.2c2.3,0,4.2-1.9,4.2-4.2C41.3,57,33,57,33,57z"/>
		<g>
			<path class="st5" d="M41.3,57H33c0,0.5,0.1,1.1,0.3,1.5H41C41.2,58,41.3,57.5,41.3,57z"/>
		</g>
		<path class="st2" d="M56.8,10.2c-0.5-0.1-0.8-0.4-1-0.9C53.6,4,43.5,0.5,35.4,0.5c-5,0-9.2,0.8-9.9,1.3c-0.5,0.4,1.7,0.9,1.9,1
			c2.5,1.1-8.6,0.5-10.8,3.6c-0.4,0.6,1.8,0.8,0,2.1c-1.4,0.9-3.8,3.2-4.9,5c-1,1.6-2.7,4.2-3.1,6.2c-0.1,0.5-0.3,1.3-0.1,1.4
			c0.4,0.3,1.5-0.6,1.4-0.4c-0.6,1.6-2.1,2.4-2.8,8.3c-0.4,2.9,0.2,4.3,0.5,4.3c0.3,0,1.7-1.8,1.7-1.8s1,3.6,2.6,7.2
			c0.8,1.6,3.1,5,3.1,5c0-0.5,0.2-6.3,0.4-8.1c0.4-4.3,0.7-9.1,1.7-10.4c1-1.3,6.4,3.8,6.5,2.6c0-0.4,0.3-4.1,0.3-4.1
			s2.1,2.9,2.5,2.1c0.5-0.9,0.8-3.2,0.8-3.2s0.6,1.7,2.3,2c1.4,0.3,2.3-2.8,8.7-0.6c10.4,3.4,11.7-0.7,14.7-0.3
			c2.2,0.3,5.7,3.3,6.1,8.5c0.3,4,0.4,11,0.4,11s3.4-4.9,3.6-8.9c0-1.2,2,2.2,1.9,0.2c-0.2-4.4-2.7-7.6-1.9-7.1
			c2.5,1.5,2.7,2.2,2.7,1.2c0-0.5-0.1-3-0.4-4.1c-0.6-2.5-0.7-4.5-4.4-8.6c-0.3-0.4-0.3-0.4-0.7-0.7c-0.4-0.3,2,0.2,1.8-0.2
			C61.1,13.6,59.5,10.8,56.8,10.2z"/>
		<g>
			<path class="st6" d="M35.1,50.1c0.3,1,1.3,1.1,2.1,1.1s1.7-0.1,2.1-1.1"/>
		</g>
	</g>
</g>
</svg>
