<?xml version="1.0" encoding="utf-8"?>
<!-- Generator: Adobe Illustrator 23.0.1, SVG Export Plug-In . SVG Version: 6.00 Build 0)  -->
<svg version="1.1" id="Layer_1" xmlns="http://www.w3.org/2000/svg" xmlns:xlink="http://www.w3.org/1999/xlink" x="0px" y="0px"
	 viewBox="0 0 76 98" style="enable-background:new 0 0 76 98;" xml:space="preserve">
<style type="text/css">
	.st0{fill:#57545E;}
	.st1{fill:#EBC19C;}
	.st2{fill:#737374;}
	.st3{fill:#93745D;}
	.st4{fill:#2E368F;}
	.st5{fill:#CB8C85;}
	.st6{fill:#FFFFFF;}
	.st7{fill:#766C82;}
	.st8{fill:none;stroke:#D29E8C;stroke-width:1.5715;stroke-linecap:round;stroke-miterlimit:10;}
</style>
<g>
	<g>
		<polygon class="st0" points="49.6,66.3 25.5,66.3 37.5,76.5 		"/>
		<path class="st1" d="M47.5,68.7h-0.1V53.9H27.7v14.7h-0.1C12.3,68.7,0,81.1,0,96.4v1.1h75.2v-1.1C75.2,81.1,62.8,68.7,47.5,68.7z"
			/>
		<path class="st1" d="M37.5,66.1L37.5,66.1c-12.6,0-22.8-10.2-22.8-22.8V13h45.6v30.3C60.3,55.9,50.1,66.1,37.5,66.1z"/>
		<g>
			<g>
				<ellipse class="st2" cx="47.6" cy="38.7" rx="1.6" ry="1.6"/>
			</g>
		</g>
		<path class="st3" d="M43.7,31.3h1.7c0.3,0,0.6,0,1,0c1.8,0.1,3.6,0.6,5.3,1.5c0.5,0.3,0.9,0.6,0.9,0.8c0,0.2-8.9-0.5-8.9-0.5
			c-0.2,0-0.3-0.2-0.3-0.3v-1.1C43.3,31.4,43.5,31.3,43.7,31.3z"/>
		<g>
			<g>
				<ellipse class="st2" cx="27.9" cy="38.7" rx="1.6" ry="1.6"/>
			</g>
		</g>
		<path class="st3" d="M31.8,31.3h-1.7c-0.1,0-0.2,0-0.4,0c-2.1,0.1-4.2,0.6-6.2,1.5c-0.6,0.3-1.1,0.6-1.1,0.8
			c0,0.2,9.4-0.5,9.4-0.5c0.2,0,0.3-0.2,0.3-0.3v-1.1C32.1,31.4,32,31.3,31.8,31.3z"/>
		<g>
			<path class="st4" d="M49.5,68.7L49.5,68.7c-0.2,6.5-5.5,7.8-12,7.8s-11.8-1.3-12-7.8l0,0C11.4,68.7,0,80.2,0,94.4v3.4h75.2v-3.4
				C75.2,80.2,63.7,68.7,49.5,68.7z"/>
		</g>
		<path class="st5" d="M33.3,55.5c0,2.4,1.9,4.3,4.3,4.3s4.3-1.9,4.3-4.3H33.3z"/>
		<g>
			<path class="st6" d="M41.8,55.5h-8.6c0,0.6,0.1,1.1,0.3,1.6h8C41.7,56.6,41.8,56.1,41.8,55.5z"/>
		</g>
		<path class="st3" d="M45.6,2.2c-0.9,0.2-3.1,0.7-3.1,0.7s-1.7-0.4-2.4-0.7c-0.9-0.3-4-2.1-5.6-1.9c-1.5,0.3,0.8,0.9-0.2,0.8
			c-0.6,0-2.6-0.4-3.2-0.4c-0.7,0,0.2,0.4-0.5,0.4c-2.3,0.1-6,0.4-7.2,0.9c-4.5,2-7.6,5.8-7.9,6.1c-0.3,0.4,1,0,0.7,0.4
			c-0.6,0.7-3.2,3.8-3.8,5.3c-0.3,0.6,1.3-0.5,1.1,0.1c-0.2,0.6-1.2,2.8-1.3,3.5c-0.1,0.5,0.7-0.6,0.7-0.1c-0.1,0.6-0.5,4.1-0.5,4.1
			l0.4-0.6l-0.6,11.3l0.6-0.5v10.8c0,1.3,1.1,2.4,2.4,2.4v-4v-10c0,0-1.7,0.5-0.8,0.2c4.3-1.3,7.3-4.4,8.5-4.7
			c0.6-0.2-2.1,2.7-1.4,2.6c2.5-0.5,6.3-4,7.8-4.6c0.6-0.3-1.2,2.5-0.6,2.3c2.5-1.1,3.7-2.5,6.2-5.1c0.3-0.3-0.6,2.1-0.2,2
			c1.6-0.6,6.2-7.4,7.1-9.6l0,0c0.5,0.7,1.6,5.3,4,7.6c0.4,0.4-0.7-3.5-0.3-3c1.1,1.3,5.4,7.4,7.8,9.3c1,0.7-0.3-2.5,0.5-1.8
			c1.2,1.1,5.2,3.3,7.3,3.9l-0.9-0.3l0,15.3l0,0c0.9,0,1.6-0.5,2-1.2c0.2-0.4,0.3-0.8,0.3-1.2v-0.9v-9.9l0.6,1l-0.6-13v-0.3l0,0
			c0-0.5,0-1-0.1-1.6s0.3,0,0.2-0.5c-0.2-1.2-1-3.6-1.5-4.7c-0.3-0.7,0.6,0.2,0.3-0.5c-0.3-0.6-2.5-4.5-5-6.6
			c-0.3-0.3,0.9,0.2,0.6,0c-0.2-0.2-3.6-2.2-4.5-2.6c-0.4-0.2,0.9-0.3,0-0.5C52.1,2.1,48.8,1.6,45.6,2.2z"/>
		<path class="st1" d="M61.6,45.2h-1.4V34.6h1.4c1.3,0,2.3,1,2.3,2.3v6C63.9,44.2,62.9,45.2,61.6,45.2z"/>
		<path class="st1" d="M13.8,45.2h1.4V34.6h-1.4c-1.3,0-2.3,1-2.3,2.3v6C11.5,44.2,12.5,45.2,13.8,45.2z"/>
		<g>
			<g>
				<path class="st7" d="M55.5,69.1L43.9,80.5c-0.5,0.6-1.3,0.6-1.9,0.1l-4.5-4.1l12.1-10.2L55.5,69.1z"/>
			</g>
			<g>
				<path class="st7" d="M19.6,69.1l11.6,11.3c0.5,0.6,1.3,0.6,1.9,0.1l4.5-4.1L25.5,66.3L19.6,69.1z"/>
			</g>
		</g>
		<g>
			<ellipse class="st7" cx="37.5" cy="87.8" rx="0.9" ry="0.9"/>
			<ellipse class="st7" cx="37.5" cy="80" rx="0.9" ry="0.9"/>
			<ellipse class="st7" cx="37.5" cy="95.6" rx="0.9" ry="0.9"/>
		</g>
		<g>
			<path class="st8" d="M35.5,49c0.3,1,1.3,1.1,2.1,1.1s1.7-0.1,2.1-1.1"/>
		</g>
	</g>
</g>
</svg>
